<?xml version="1.0" encoding="UTF-8"?>
<svg version="1.1" xmlns="http://www.w3.org/2000/svg" width="400" height="400">
<path d="M0 0 C1.52498729 -0.01062394 3.04996656 -0.02245601 4.57493591 -0.03540039 C8.70304972 -0.06608365 12.83099019 -0.07731108 16.95920634 -0.08304262 C19.54115358 -0.08740546 22.12305633 -0.09578651 24.70498848 -0.10554123 C33.72034111 -0.13924964 42.7355632 -0.15641863 51.75097656 -0.15917969 C60.14289403 -0.16221583 68.53407556 -0.20268777 76.92577928 -0.26032794 C84.14215008 -0.30814247 91.35827808 -0.32891179 98.57480627 -0.32897031 C102.8800042 -0.32950765 107.18448016 -0.34102755 111.4895153 -0.38014603 C115.53894176 -0.41607336 119.58702455 -0.41825585 123.63652992 -0.39497375 C125.11836783 -0.39211984 126.60028574 -0.40111983 128.08196259 -0.42315292 C140.64317368 -0.59829154 140.64317368 -0.59829154 145.80152893 3.80679321 C147.55082035 5.64141273 147.55082035 5.64141273 149.01196289 7.45166016 C149.46977111 8.01223806 149.92757933 8.57281597 150.39926052 9.15038109 C154.27827843 14.31768644 153.4514685 20.74844969 153.26196289 26.88916016 C153.24391602 28.00226563 153.22586914 29.11537109 153.20727539 30.26220703 C153.16039608 32.99292662 153.09479108 35.72183402 153.01196289 38.45166016 C154.23411499 38.42990723 154.23411499 38.42990723 155.48095703 38.40771484 C156.55466553 38.39643555 157.62837402 38.38515625 158.73461914 38.37353516 C160.32802124 38.35178223 160.32802124 38.35178223 161.95361328 38.32958984 C168.19618496 38.57875452 173.67748757 40.87638065 178.01196289 45.45166016 C182.56371619 52.67736385 182.50131718 59.69659868 182.26196289 68.01416016 C182.24391602 69.21363281 182.22586914 70.41310547 182.20727539 71.64892578 C182.16050097 74.58402068 182.09496872 77.51740418 182.01196289 80.45166016 C181.14619629 80.46100586 180.28042969 80.47035156 179.38842773 80.47998047 C176.10383445 80.52460928 172.8204256 80.58648395 169.53637695 80.65917969 C168.12861527 80.68700233 166.7207086 80.70840426 165.31274414 80.72265625 C150.6459675 80.87980029 137.96728267 82.75959205 127.01196289 93.45166016 C126.42801758 94.00853516 125.84407227 94.56541016 125.24243164 95.13916016 C116.48977492 104.35714799 114.43783341 115.83788609 114.66821289 128.04541016 C114.98438191 134.17908907 117.04823091 139.12324841 120.01196289 144.45166016 C120.43477539 145.26119141 120.85758789 146.07072266 121.29321289 146.90478516 C126.60842479 155.99008922 136.13768852 162.15402513 146.01196289 165.45166016 C150.11747905 166.43967527 154.06566605 166.6466228 158.28149414 166.76806641 C158.9624968 166.7888475 159.64349945 166.8096286 160.34513855 166.83103943 C162.50481797 166.89603893 164.66461135 166.95518728 166.82446289 167.01416016 C168.29517745 167.05739266 169.7658808 167.10100841 171.23657227 167.14501953 C174.82825006 167.25166874 178.42005371 167.35307365 182.01196289 167.45166016 C182.09979764 171.45151945 182.15263391 175.4511272 182.19946289 179.45166016 C182.22459961 180.57701172 182.24973633 181.70236328 182.27563477 182.86181641 C182.34183423 190.40855535 181.86747278 196.33972591 177.44946289 202.70166016 C168.39893967 209.1994717 158.72687016 209.02138132 148.06274414 208.95336914 C146.36322585 208.95715798 144.66371065 208.96266266 142.96420288 208.96974182 C138.37322819 208.98364007 133.78263064 208.97256642 129.19167709 208.95603061 C124.3730621 208.94212086 119.5544677 208.94864691 114.73583984 208.9521637 C106.64585332 208.95486115 98.55601557 208.94143028 90.46606445 208.91821289 C81.13085634 208.89160612 71.79589684 208.88985783 62.4606638 208.90160125 C53.45741681 208.91240385 44.4542592 208.90617251 35.45101929 208.89204597 C31.62989168 208.88630768 27.80882994 208.88635182 23.98770142 208.89111137 C19.48301285 208.89590572 14.97859433 208.88567833 10.47395706 208.86415672 C8.82689957 208.85862202 7.17981595 208.85809284 5.53275681 208.86310959 C-6.91252912 208.8962452 -18.26370058 208.09963882 -27.98803711 199.45166016 C-32.65855119 193.62332956 -35.10815491 189.33045881 -35.14193726 181.84909058 C-35.14631951 181.1629059 -35.15070176 180.47672123 -35.15521681 179.76974308 C-35.16862361 177.45912288 -35.17478794 175.14854082 -35.1809082 172.83789062 C-35.18880786 171.18557054 -35.19707673 169.53325219 -35.20568848 167.88093567 C-35.23193029 162.44358981 -35.24722096 157.00623617 -35.26147461 151.56884766 C-35.26683391 149.69744995 -35.27221142 147.8260523 -35.27760696 145.95465469 C-35.29924127 138.16887772 -35.31797703 130.38310283 -35.32922935 122.59730339 C-35.3454609 111.43926093 -35.37861302 100.28156716 -35.4356302 89.12365615 C-35.47434901 81.27896968 -35.4938645 73.43437638 -35.49914992 65.58959687 C-35.5028015 60.90439986 -35.5148016 56.21957457 -35.54725266 51.53448105 C-35.57736648 47.12340862 -35.58363342 42.71293213 -35.5718689 38.30177879 C-35.57164842 36.68610727 -35.57993217 35.07040785 -35.59752274 33.45483208 C-35.75790188 17.87184078 -35.75790188 17.87184078 -29.98803711 11.45166016 C-29.0019043 10.25089844 -29.0019043 10.25089844 -27.99584961 9.02587891 C-27.37452148 8.40326172 -26.75319336 7.78064453 -26.11303711 7.13916016 C-25.49686523 6.50365234 -24.88069336 5.86814453 -24.24584961 5.21337891 C-16.81403713 -0.58549208 -9.06358477 -0.00067865 0 0 Z M-12.98803711 25.45166016 C-14.43234566 28.34027725 -14.36492217 30.24813717 -13.98803711 33.45166016 C-12.34270842 36.06198119 -11.62969581 37.02753844 -8.98803711 38.45166016 C-4.48954063 39.19593112 -0.02675131 39.08217718 4.52294922 39.01928711 C5.9128311 39.01787602 7.30271672 39.01866981 8.69259644 39.02149963 C12.45903689 39.02293286 16.22467942 38.99355938 19.99093461 38.95862985 C23.9293552 38.92735017 27.86779455 38.92443436 31.80632019 38.91850281 C39.26139101 38.90296902 46.71609474 38.86194712 54.171004 38.81175536 C62.65941921 38.75584721 71.14785206 38.72837174 79.63640559 38.70327818 C97.09514293 38.65103061 114.55350005 38.56208924 132.01196289 38.45166016 C132.01196289 32.84166016 132.01196289 27.23166016 132.01196289 21.45166016 C113.84461788 21.35906898 95.67735382 21.28768423 77.5098238 21.24441147 C69.07433859 21.22378522 60.63900267 21.19566352 52.20361328 21.14990234 C44.85141421 21.11003638 37.49932324 21.0842278 30.14701909 21.07530618 C26.25389071 21.07009097 22.36107163 21.0578324 18.46804237 21.02873993 C14.80314759 21.00157439 11.13868929 20.9932173 7.47370338 20.99922943 C5.4886277 20.99760561 3.50359947 20.97608872 1.51864624 20.95397949 C0.33379135 20.95947815 -0.85106354 20.96497681 -2.07182312 20.97064209 C-3.0996223 20.96695492 -4.12742147 20.96326775 -5.18636608 20.95946884 C-8.73351534 21.58262411 -10.4104609 22.98904879 -12.98803711 25.45166016 Z " fill="#000" transform="translate(45.988037109375,95.54833984375)"/>
<path d="M0 0 C0.99642517 -0.00524185 1.99285034 -0.0104837 3.01947021 -0.0158844 C5.11030144 -0.02226851 7.20116875 -0.02101482 9.29199219 -0.01245117 C12.48957684 -0.00389233 15.68540159 -0.032832 18.8828125 -0.06445312 C20.92187447 -0.06606419 22.96093959 -0.06548943 25 -0.0625 C25.95215393 -0.07373398 26.90430786 -0.08496796 27.88531494 -0.09654236 C31.80125961 -0.05533749 34.69459824 0.20870803 38.33251953 1.72436523 C41.4830439 6.21234583 40.94649642 10.93013089 40.8984375 16.27734375 C40.90322113 17.43858765 40.90800476 18.59983154 40.91293335 19.79626465 C40.91633491 22.2507462 40.90711484 24.70527291 40.88623047 27.15966797 C40.85947194 30.91997145 40.88597324 34.67728954 40.91796875 38.4375 C40.9146647 40.82162118 40.90825858 43.20574051 40.8984375 45.58984375 C40.90855865 46.71596069 40.91867981 47.84207764 40.92910767 49.00231934 C40.8147061 56.60852499 40.8147061 56.60852499 38.33032227 60.140625 C33.86094753 62.00718194 29.83676451 62.00581063 25.03515625 61.96484375 C24.04492966 61.96867065 23.05470306 61.97249756 22.0344696 61.97644043 C19.940694 61.97915872 17.84688439 61.97180336 15.75317383 61.95507812 C12.57489602 61.93378151 9.39890816 61.95482414 6.22070312 61.98046875 C4.17968257 61.97782324 2.13866342 61.97269366 0.09765625 61.96484375 C-1.31068733 61.97698914 -1.31068733 61.97698914 -2.7474823 61.98937988 C-12.00638512 61.86024897 -20.17853209 59.08388836 -26.9375 52.5859375 C-33.7785517 44.53162236 -35.83032972 36.3847451 -35.2265625 26.08203125 C-34.63690333 21.41472898 -33.45493488 18.23957209 -30.765625 14.43359375 C-30.1675 13.38171875 -29.569375 12.32984375 -28.953125 11.24609375 C-21.65849945 1.86728948 -11.33237607 -0.03523914 0 0 Z M-10.765625 24.43359375 C-11.36375 24.86671875 -11.961875 25.29984375 -12.578125 25.74609375 C-14.44910235 28.40485103 -14.20882643 30.26786925 -13.765625 33.43359375 C-11.96568726 36.13350037 -10.681852 37.97548025 -7.765625 39.43359375 C-4.39255882 40.01774077 -4.39255882 40.01774077 -0.765625 39.43359375 C2.45779176 36.55309367 3.99135086 34.62441202 4.859375 30.37109375 C4.00984214 26.37828932 2.42538207 24.91548814 -0.765625 22.43359375 C-5.09028819 20.70372847 -7.11524273 21.74383839 -10.765625 24.43359375 Z " fill="#000" transform="translate(207.765625,188.56640625)"/>
</svg>
