<svg width="48px" height="48px" viewBox="0 0 192.756 192.756" xmlns="http://www.w3.org/2000/svg" fill="#000000">
<g id="SVGRepo_bgCarrier" stroke-width="0"></g><g id="SVGRepo_tracerCarrier" stroke-linecap="round" stroke-linejoin="round"></g>
<g id="SVGRepo_iconCarrier"> <g fill-rule="evenodd" clip-rule="evenodd"> <path fill="#ffffff" d="M0 0h192.756v192.756H0V0z">
</path> <path d="M92.579 17.792c-9.634 0-18.877 1.861-27.701 5.583-8.494 3.601-16.027 8.673-22.6 15.246-6.543 6.572-11.645 14.106-15.216 22.599-3.752 8.824-5.612 18.038-5.612 27.702 0 9.634 1.86 18.878 5.612 27.671 3.571 8.523 8.673 16.057 15.216 22.629 6.573 6.574 14.106 11.646 22.6 15.246 8.823 3.723 18.066 5.613 27.701 5.613 9.663 0 18.878-1.891 27.702-5.613 8.494-3.6 16.027-8.672 22.6-15.246 6.541-6.572 11.645-14.105 15.217-22.629 3.75-8.793 5.611-18.037 5.611-27.671 0-9.664-1.861-18.878-5.611-27.702-3.572-8.493-8.676-16.027-15.217-22.599-6.572-6.573-14.105-11.645-22.6-15.246-8.824-3.721-18.039-5.583-27.702-5.583z" fill="#ffffff"></path>

 <path d="M113.318 24.396a65.158 65.158 0 0 0-20.199-3.211c-9.874 0-19.178 1.891-27.851 5.702-8.193 3.571-15.366 8.614-21.579 15.097-5.973 6.273-10.625 13.445-13.896 21.519-3.301 8.073-4.923 16.356-4.923 24.881 0 9.184 1.711 17.948 5.163 26.35 3.361 8.193 8.073 15.428 14.226 21.73a65.66 65.66 0 0 0 21.369 14.766c8.433 3.662 17.317 5.463 26.682 5.463 16.296 0 30.522-4.922 42.677-14.826 4.773-3.873 8.975-8.375 12.637-13.445 3.092-4.293 5.521-8.645 7.293-12.996l-11.375-6.184c-4.803 10.805-11.465 19.359-19.988 25.631-9.035 6.633-19.268 10.025-30.644 10.205-8.434.121-16.387-1.199-23.83-3.992-7.263-2.701-13.655-6.633-19.178-11.824l-6.573 2.82v-10.174c-3.662-4.922-6.422-10.324-8.343-16.297-1.981-6.152-2.971-12.666-2.971-19.508 0-8.793 1.621-17.106 4.862-24.97 3.152-7.653 7.653-14.375 13.505-20.168 5.913-5.883 12.786-10.384 20.649-13.566 8.164-3.271 16.927-4.922 26.261-4.922 5.011-.002 10.384.658 16.026 1.919z" fill="#3261a5"></path> 
 <path d="M147.172 70.915c-.449-.959-1.17-1.62-2.189-2.04-1.592-.601-3.334-.991-5.312-1.111-1.951-.12-3.902 0-5.883.421-3.781.75-7.023 2.37-9.695 4.861-3.871 3.602-5.822 8.494-5.822 14.736 0 5.223 1.711 9.093 5.133 11.615 2.91 2.131 6.482 2.971 10.684 2.49 4.742-.539 8.434-2.131 11.105-4.771 1.531-1.5 2.281-3.571 2.311-6.212.061-1.801.061-5.613 0-11.375l-14.195 3.092v3.302c.029 2.401 1.141 3.391 3.391 2.94l1.801-.45.031 2.702c.029.239-.062.51-.33.811-.51.66-1.531 1.11-3.033 1.41-2.279.33-3.99-.12-5.16-1.44-1.111-1.231-1.682-3.182-1.711-5.793.061-2.61.75-4.772 2.1-6.453 1.232-1.53 2.822-2.551 4.832-3.001 1.771-.42 3.451-.54 5.043-.33l2.941.57c1.141.181 2.07-.09 2.881-.721.691-.599 1.17-1.41 1.381-2.4a4.63 4.63 0 0 0-.304-2.853zM108.785 76.107c-.838 1.11-1.26 2.611-1.26 4.592l-.029 10.024c-3.781-4.742-6.934-8.374-9.395-10.865-1.351-1.32-3.092-1.59-5.283-.809l-4.861 1.47v33.463l4.712-1.619c1.741-.602 2.972-1.471 3.721-2.553.721-1.08 1.051-2.52 1.051-4.352l-.061-11.554 10.115 11.675c1.5 1.529 3.361 1.98 5.611 1.32a4.777 4.777 0 0 0 2.521-1.74c.721-.9 1.08-1.951 1.109-3.152V73.016c-1.74.36-3.33.75-4.801 1.17-1.378.39-2.429 1.021-3.15 1.921zM79.344 83.07c-1.711.63-2.971 1.501-3.751 2.551-.901 1.261-1.321 3.032-1.321 5.373l-.029 27.792 5.462-1.951c1.89-.721 3.211-1.59 3.991-2.701.78-1.08 1.171-2.611 1.171-4.562l.03-28.301a86.064 86.064 0 0 0-5.553 1.799zM54.884 92.463l-10.115 4.203-.06 33.344 7.143-3.002c.96-.238 1.711-.84 2.25-1.711.541-.84.781-1.92.751-3.27v-10.596l7.983 8.494c.99.99 2.16 1.59 3.511 1.74 1.561.211 3.001-.24 4.322-1.291 1.2-.99 1.83-2.25 1.891-3.781.03-1.41-.331-2.551-1.14-3.451l-7.293-7.293L71.6 94.054c.69-1.14.871-2.311.54-3.481-.36-1.231-1.17-2.131-2.401-2.671-1.291-.6-2.581-.66-3.781-.21-1.051.39-1.86 1.021-2.431 1.921l-8.614 14.647-.029-11.797z" fill="#cc2131"></path> 
 <path d="M137.418 104.559c-.359-.391-.99-.48-1.861-.24-10.023 2.342-21.518 5.553-34.514 9.635-13.956 4.383-25.271 8.434-33.915 12.154l-.871.42c-.209.15-.39.33-.48.602-.271.568-.12 1.141.451 1.74.99 1.201 2.641 2.371 4.982 3.512 2.52 1.199 5.402 2.191 8.703 2.941 8.044 1.77 16.117 1.68 24.219-.271 11.496-2.76 20.408-7.982 26.742-15.666 2.102-2.58 3.812-5.312 5.133-8.164.811-1.74 1.381-3.301 1.711-4.682.18-.931.091-1.591-.3-1.981z" fill="#eebd31"></path> <path d="M53.113 67.944c-1.591-.841-3.631-.841-6.123.089-1.26.451-3.751 1.441-7.502 2.971l.029 24.311 8.944-3.812c2.461-1.021 4.292-2.161 5.492-3.392 1.501-1.561 2.22-3.391 2.19-5.552-.029-1.201-.419-2.221-1.23-3.061a4.738 4.738 0 0 0-2.792-1.5c2.131-1.712 3.181-3.722 3.181-6.062.001-1.861-.749-3.182-2.189-3.992zm-6.303 9.603l-1.141.48v-5.131c.991-.541 1.831-.661 2.492-.451.63.24.96.78.93 1.681 0 1.531-.78 2.671-2.281 3.421zm1.772 3.872c.69.36 1.05.99 1.05 1.95.061 1.682-.811 2.912-2.521 3.692l-1.38.63v-5.913c1.169-.599 2.13-.719 2.851-.359zM73.161 62.031c0-.99-.299-1.65-.93-2.01-.54-.33-1.291-.36-2.161-.09-.931.27-1.921.6-3.001 1.02v15.096c-.061 2.251-.75 3.512-2.131 3.872-.69.15-1.23.03-1.591-.36-.33-.36-.51-.959-.51-1.74l-.03-12.366c0-.991-.301-1.681-.9-2.041-.57-.36-1.29-.36-2.191-.09l-3.062 1.11v14.977c-.028 2.521.751 4.351 2.341 5.432 1.622 1.141 3.751 1.321 6.363.541 2.551-.751 4.412-1.891 5.612-3.332 1.441-1.741 2.161-4.172 2.19-7.324V62.031h.001zM117.91 55.639v-3.392l5.191-1.08c1.232-.241 1.861-1.11 1.861-2.551v-2.581c-4.291.721-8.674 1.62-13.115 2.641l-.09 22.179a466.974 466.974 0 0 1 11.254-2.581c1.441-.33 2.191-1.291 2.191-2.881v-2.582l-7.293 1.591.029-4.292 4.562-.959c1.26-.301 1.891-1.082 1.891-2.402l-.029-2.461-6.452 1.351zM74.843 81.27l3.63-1.23c1.651-.66 2.461-1.741 2.491-3.301l.03-5.943 5.222 5.432c.781.751 1.651 1.081 2.67 1.022.811-.091 1.472-.361 2.011-.872.661-.6.991-1.38.991-2.311-.03-.9-.33-1.65-.931-2.251l-3.961-3.782c2.551-2.1 3.812-4.532 3.841-7.232 0-1.891-.72-3.301-2.19-4.202-1.501-.93-3.422-1.14-5.732-.601-1.981.45-4.682 1.291-8.072 2.461v22.81zm6.121-13.897v-6.332c2.341-.871 3.542-.36 3.572 1.531.03 1.98-1.171 3.571-3.572 4.801zM140.119 45.615c-1.441-1.111-3.301-1.531-5.521-1.23l-8.043 1.35v21.849l3.33-.63c1.711-.391 2.58-1.41 2.611-3.121V58.49l5.133 6.032c.51.57 1.141.9 1.83 1.021.811.149 1.59 0 2.34-.481.811-.511 1.262-1.23 1.352-2.131s-.15-1.681-.75-2.312l-3.961-4.441c2.461-1.651 3.721-3.722 3.721-6.213.028-1.86-.661-3.27-2.042-4.35zm-7.623 9.483l-.031-5.913c2.312-.48 3.512.091 3.543 1.741 0 1.891-1.17 3.272-3.512 4.172zM110.227 53.417c.029-1.05-.42-1.86-1.35-2.431-1.021-.57-2.463-.811-4.383-.78-4.082.149-7.293 1.561-9.634 4.261-2.161 2.491-3.241 5.643-3.241 9.485 0 3.631 1.08 6.333 3.21 8.104 1.981 1.651 4.562 2.191 7.652 1.621 2.643-.511 4.713-1.44 6.213-2.791 1.111-.961 1.652-2.251 1.652-3.842V58.43l-9.096 2.041v2.521c0 .601.211 1.051.602 1.381.389.331.871.45 1.441.331l1.32-.3.029 2.49c0 .511-.301.901-.93 1.201-.602.3-1.32.45-2.102.42-2.25-.03-3.361-1.68-3.422-4.952.029-2.041.51-3.692 1.381-5.012.871-1.23 1.98-2.012 3.391-2.402.9-.209 2.072-.239 3.543-.06 1.141.211 2.041.03 2.701-.45s.993-1.231 1.023-2.222z" fill="#cc2131"></path> 
 <path d="M59.445 54.438c.3-.21.451-.57.51-1.021 1.021-3.871 2.971-7.683 5.853-11.375 2.701-3.452 5.643-6.153 8.854-8.104-4.592 2.011-8.644 5.222-12.185 9.634-1.441 1.831-2.611 3.631-3.512 5.432-.84 1.711-1.32 3.121-1.44 4.292 0 .42.09.75.3 1.021.209.24.48.359.81.39.3.031.571-.059.81-.269zM116.17 37.541c.029-.99-.631-2.01-1.922-3.061-1.23-.99-2.941-1.892-5.072-2.731-2.221-.811-4.561-1.38-7.082-1.771-2.701-.389-5.343-.509-7.894-.299 5.042.359 9.244 1.35 12.605 3.062 1.473.72 2.611 1.5 3.422 2.34.779.81 1.201 1.591 1.201 2.311.029.901-.33 1.741-1.051 2.461-.66.75-1.561 1.291-2.611 1.621l3.541-.84c1.201-.271 2.072-.51 2.643-.75 1.47-.512 2.189-1.293 2.22-2.343zM131.266 112.213c.301-.631.33-1.201.121-1.682-.15-.449-.48-.75-.961-.9s-.932-.09-1.381.15c-.541.301-.9.811-1.141 1.531-1.41 3.662-3.393 7.023-5.941 10.113-3.002 3.691-6.635 6.723-10.865 9.123 4.291-1.68 8.133-3.99 11.494-6.932 3.752-3.27 6.633-7.052 8.674-11.403z" fill="#ffffff"></path> <path fill="#cc2131" d="M153.234 109.48h-2.25v.362h.87v1.74h.57v-1.74h.81v-.362zM154.105 109.871l.51 1.711h.571l.509-1.711v1.711h.571v-2.102h-.84l-.51 1.622-.541-1.622h-.84v2.102h.57v-1.711z">
</path> </g> </g></svg>