<?xml version="1.0" encoding="UTF-8"?>
<svg version="1.1" xmlns="http://www.w3.org/2000/svg" width="256" height="256">
<path d="M0 0 C1.27009163 -0.00856522 1.27009163 -0.00856522 2.56584167 -0.01730347 C3.95451698 -0.01898026 3.95451698 -0.01898026 5.37124634 -0.02069092 C6.34876358 -0.02565582 7.32628082 -0.03062073 8.3334198 -0.03573608 C11.57210998 -0.05035957 14.8107512 -0.05715972 18.04946899 -0.06268311 C20.29764813 -0.068434 22.54582725 -0.07419175 24.79400635 -0.07995605 C29.51002227 -0.0904663 34.22602113 -0.09630895 38.94204712 -0.09979248 C44.98713553 -0.10527998 51.03199901 -0.12931353 57.07701683 -0.15776443 C61.72154399 -0.17638013 66.36601683 -0.18159583 71.01057816 -0.18312836 C73.23932755 -0.18615737 75.46807594 -0.19419421 77.69678879 -0.20731354 C80.81370969 -0.22435286 83.93007911 -0.22249889 87.04702759 -0.21600342 C87.96876266 -0.2252182 88.89049774 -0.23443298 89.84016418 -0.243927 C94.67022327 -0.21236862 97.92838742 -0.01649579 101.83853149 3.14044189 C106.29048761 8.21072525 106.9802804 11.15730235 106.90103149 17.76544189 C106.89651978 18.47184814 106.89200806 19.17825439 106.88735962 19.90606689 C106.87557024 21.65089465 106.85763474 23.39567889 106.83853149 25.14044189 C108.01415649 25.05794189 109.18978149 24.97544189 110.40103149 24.89044189 C115.28068551 24.89044189 117.87224166 26.3407079 121.83853149 29.14044189 C126.51987304 34.2899176 126.0214227 39.62618844 126.02603149 46.20294189 C126.03827759 47.12655518 126.05052368 48.05016846 126.06314087 49.00177002 C126.06507446 49.8841333 126.06700806 50.76649658 126.06900024 51.67559814 C126.07310913 52.4839209 126.07721802 53.29224365 126.08145142 54.12506104 C125.83853149 56.14044189 125.83853149 56.14044189 123.83853149 58.14044189 C121.73477173 58.39581299 121.73477173 58.39581299 119.14712524 58.41387939 C118.2015979 58.43450439 117.25607056 58.45512939 116.28189087 58.47637939 C114.3054112 58.50206464 112.3288217 58.5205038 110.35220337 58.53106689 C102.70129728 58.71704436 96.57913077 60.12260248 90.53384399 64.99981689 C85.94309914 70.52698234 83.5004092 75.31625959 82.27603149 82.39044189 C83.49220194 90.49824487 87.54660179 97.8896164 93.93228149 103.05450439 C100.89748459 107.02238649 108.35646467 106.5373071 116.13540649 106.70684814 C117.57400024 106.7513208 117.57400024 106.7513208 119.04165649 106.79669189 C119.91467407 106.8153833 120.78769165 106.83407471 121.68716431 106.85333252 C123.83853149 107.14044189 123.83853149 107.14044189 125.83853149 109.14044189 C126.28753286 112.1812787 126.16256486 115.25775987 126.15103149 118.32794189 C126.16714478 119.16647705 126.18325806 120.00501221 126.19985962 120.86895752 C126.20416924 126.38958482 125.50486425 130.27720116 122.83853149 135.14044189 C118.01972498 139.03649822 114.21384421 140.25578573 108.14161682 140.28761292 C106.73101486 140.29834587 106.73101486 140.29834587 105.29191589 140.30929565 C104.26694504 140.31198456 103.24197418 140.31467346 102.1859436 140.31744385 C101.10087524 140.32401505 100.01580688 140.33058624 98.89785767 140.33735657 C95.30386281 140.35707931 91.70990977 140.36875146 88.11587524 140.37872314 C86.27195285 140.38483644 86.27195285 140.38483644 84.3907795 140.39107323 C78.55218322 140.40978213 72.71360331 140.42434675 66.87498277 140.4326852 C60.82568717 140.44146929 54.77664329 140.4607177 48.72744751 140.49713135 C42.225924 140.53563994 35.72462728 140.55438019 29.22299385 140.55888939 C26.75078654 140.56374737 24.27858256 140.57533869 21.80644035 140.59392738 C18.33632276 140.61839318 14.86705936 140.61733945 11.3968811 140.6104126 C9.88067924 140.62962769 9.88067924 140.62962769 8.33384705 140.64923096 C0.57662096 140.59313002 -7.50932091 139.46708238 -13.4366312 134.06805897 C-17.09358414 130.01022966 -19.27542667 127.22870446 -19.32209778 121.70181274 C-19.3321434 120.76823944 -19.34218903 119.83466614 -19.35253906 118.87280273 C-19.35837006 117.84527893 -19.36420105 116.81775513 -19.37020874 115.75909424 C-19.37999252 114.67925262 -19.38977631 113.59941101 -19.39985657 112.48684692 C-19.42986001 108.90003704 -19.45121182 105.31326463 -19.47006226 101.72637939 C-19.47663408 100.50255177 -19.48320591 99.27872414 -19.48997688 98.01781082 C-19.51922875 92.20645275 -19.54314335 86.39511041 -19.56040901 80.58370435 C-19.57871842 74.55077211 -19.612011 68.5183534 -19.66903687 62.48565674 C-19.7292253 56.01235324 -19.75997258 49.53953757 -19.76967049 43.06596756 C-19.77823014 40.59961909 -19.79706053 38.13328382 -19.82641411 35.66709518 C-19.86533788 32.2102055 -19.8663608 28.75521367 -19.85848999 25.29815674 C-19.8784906 24.28277832 -19.89849121 23.2673999 -19.9190979 22.22125244 C-19.84725627 15.17659292 -18.07050268 11.18860959 -13.16146851 6.14044189 C-9.07859277 2.20282206 -5.77237762 0.02334429 0 0 Z M1.83853149 20.14044189 C1.50853149 21.46044189 1.17853149 22.78044189 0.83853149 24.14044189 C4.000852 25.72160215 7.39694857 25.26981311 10.86831665 25.25396729 C11.6976622 25.25411331 12.52700775 25.25425934 13.38148499 25.25440979 C16.13021435 25.25371161 18.87887643 25.24592361 21.62759399 25.23809814 C23.53045617 25.23623363 25.43331882 25.23480988 27.33618164 25.23381042 C32.35034505 25.22998788 37.3644796 25.22015983 42.37863159 25.20910645 C47.49286509 25.19888668 52.60710324 25.19431159 57.72134399 25.18927002 C67.76041919 25.17853734 77.79947294 25.16146405 87.83853149 25.14044189 C87.83853149 23.49044189 87.83853149 21.84044189 87.83853149 20.14044189 C59.45853149 20.14044189 31.07853149 20.14044189 1.83853149 20.14044189 Z " fill="#FCFCFC" transform="translate(23.161468505859375,57.85955810546875)"/>
<path d="M0 0 C0.74093399 -0.00807175 1.48186798 -0.01614349 2.24525452 -0.02445984 C3.81118444 -0.03827587 5.37714417 -0.0490091 6.94311523 -0.05688477 C9.33570195 -0.07413257 11.72691849 -0.11804148 14.11914062 -0.16210938 C15.64191694 -0.17223404 17.16470498 -0.18075086 18.6875 -0.1875 C19.40115219 -0.20500809 20.11480438 -0.22251617 20.8500824 -0.24055481 C24.04367813 -0.22662489 26.11986704 0.05990659 28.85961914 1.7434082 C31.05274162 5.2722255 30.98345225 8.55168114 30.94140625 12.58203125 C30.94523315 13.38813843 30.94906006 14.19424561 30.95300293 15.02478027 C30.95572015 16.72600557 30.94837215 18.42727278 30.93164062 20.12841797 C30.91022615 22.72979021 30.93144644 25.32840097 30.95703125 27.9296875 C30.95438794 29.5846415 30.94926288 31.23959379 30.94140625 32.89453125 C30.94950317 33.67066772 30.9576001 34.4468042 30.96594238 35.24645996 C30.90783026 38.59969635 30.64670006 40.86134964 28.84863281 43.7265625 C25.55088324 45.77098234 22.62974633 45.81322498 18.86328125 45.76953125 C18.1332489 45.77335815 17.40321655 45.77718506 16.65106201 45.78112793 C15.10785543 45.78384521 13.56460265 45.77649668 12.02148438 45.75976562 C9.68122106 45.73847291 7.3440705 45.75950521 5.00390625 45.78515625 C-4.02432369 45.80364966 -10.86792309 45.5309364 -17.8671875 39.16796875 C-18.41503906 38.48992187 -18.96289062 37.811875 -19.52734375 37.11328125 C-20.09324219 36.43007812 -20.65914063 35.746875 -21.2421875 35.04296875 C-25.32711603 29.57271663 -24.45473804 20.80019664 -23.58984375 14.23828125 C-21.67190387 9.00504528 -18.63974288 5.61095945 -13.90234375 2.73828125 C-9.07774827 0.55355877 -5.21798626 0.05385802 0 0 Z M-2.58984375 20.23828125 C-2.91984375 21.55828125 -3.24984375 22.87828125 -3.58984375 24.23828125 C-2.59984375 24.56828125 -1.60984375 24.89828125 -0.58984375 25.23828125 C-0.25984375 23.91828125 0.07015625 22.59828125 0.41015625 21.23828125 C-0.57984375 20.90828125 -1.56984375 20.57828125 -2.58984375 20.23828125 Z " fill="#FAFAFA" transform="translate(131.58984375,117.76171875)"/>
<path d="M0 0 C0.680625 -0.0103125 1.36125 -0.020625 2.0625 -0.03125 C4 0.5 4 0.5 7 4.5 C7 8.46 7 12.42 7 16.5 C16.57 16.5 26.14 16.5 36 16.5 C36 11.88 36 7.26 36 2.5 C38.42522207 0.07477793 39.1720679 0.20370746 42.5 0.1875 C43.2940625 0.17074219 44.088125 0.15398437 44.90625 0.13671875 C45.5971875 0.25660156 46.288125 0.37648438 47 0.5 C49.42130331 4.13195496 49.21022785 5.88349348 49.125 10.1875 C49.10695313 11.36699219 49.08890625 12.54648438 49.0703125 13.76171875 C49.04710937 14.66535156 49.02390625 15.56898437 49 16.5 C49.98742187 16.47679688 50.97484375 16.45359375 51.9921875 16.4296875 C53.27351563 16.41164063 54.55484375 16.39359375 55.875 16.375 C57.78925781 16.34019531 57.78925781 16.34019531 59.7421875 16.3046875 C63 16.5 63 16.5 65 18.5 C65.33403016 21.50627147 65.54495422 23.60344983 65 26.5 C62.60012493 29.148138 60.72779474 29.4560461 57.21875 29.66796875 C54.47109698 29.6856727 51.74429825 29.62976542 49 29.5 C49.04640625 30.31984375 49.0928125 31.1396875 49.140625 31.984375 C49.17671875 33.06203125 49.2128125 34.1396875 49.25 35.25 C49.29640625 36.31734375 49.3428125 37.3846875 49.390625 38.484375 C49 41.5 49 41.5 47.17578125 43.8671875 C44.27746382 46.04222644 42.54524272 45.95258418 39 45.5 C38.01 44.84 37.02 44.18 36 43.5 C35.70703125 40.2421875 35.70703125 40.2421875 35.8125 36.375 C35.85310547 34.45300781 35.85310547 34.45300781 35.89453125 32.4921875 C35.92933594 31.50476563 35.96414062 30.51734375 36 29.5 C33.54159395 29.47308315 31.08348118 29.45320198 28.625 29.4375 C27.57699219 29.42493164 27.57699219 29.42493164 26.5078125 29.41210938 C22.62704624 29.3164558 22.62704624 29.3164558 19 30.5 C16.95944995 30.57065617 14.91665743 30.58421976 12.875 30.5625 C11.77929688 30.55347656 10.68359375 30.54445312 9.5546875 30.53515625 C8.29011719 30.51775391 8.29011719 30.51775391 7 30.5 C7.04640625 31.31984375 7.0928125 32.1396875 7.140625 32.984375 C7.19476563 34.60085937 7.19476563 34.60085937 7.25 36.25 C7.29640625 37.31734375 7.3428125 38.3846875 7.390625 39.484375 C7 42.5 7 42.5 5.20703125 44.859375 C2.01859663 47.22953879 -0.13555278 47.06210141 -4 46.5 C-6.41520041 44.1734308 -6.96647122 42.84512289 -7.29296875 39.484375 C-7.25816406 38.41703125 -7.22335938 37.3496875 -7.1875 36.25 C-7.16042969 35.17234375 -7.13335937 34.0946875 -7.10546875 32.984375 C-7.07066406 32.16453125 -7.03585938 31.3446875 -7 30.5 C-7.81984375 30.54640625 -8.6396875 30.5928125 -9.484375 30.640625 C-11.10085937 30.69476563 -11.10085937 30.69476563 -12.75 30.75 C-14.35101563 30.81960937 -14.35101563 30.81960937 -15.984375 30.890625 C-19 30.5 -19 30.5 -21.36328125 28.671875 C-23 26.5 -23 26.5 -23.4375 23.5 C-22.94127179 20.09729224 -22.4576545 18.87640972 -20 16.5 C-16.86328125 16.109375 -16.86328125 16.109375 -13.3125 16.25 C-12.13300781 16.28609375 -10.95351562 16.3221875 -9.73828125 16.359375 C-8.38283203 16.42898437 -8.38283203 16.42898437 -7 16.5 C-7.03480469 15.68015625 -7.06960937 14.8603125 -7.10546875 14.015625 C-7.13253906 12.93796875 -7.15960938 11.8603125 -7.1875 10.75 C-7.22230469 9.68265625 -7.25710937 8.6153125 -7.29296875 7.515625 C-6.82264508 2.6744267 -5.06767057 -0.07678289 0 0 Z " fill="#0A0A0A" transform="translate(186,104.5)"/>
<path d="M0 0 C1.27009163 -0.00856522 1.27009163 -0.00856522 2.56584167 -0.01730347 C3.95451698 -0.01898026 3.95451698 -0.01898026 5.37124634 -0.02069092 C6.34876358 -0.02565582 7.32628082 -0.03062073 8.3334198 -0.03573608 C11.57210998 -0.05035957 14.8107512 -0.05715972 18.04946899 -0.06268311 C20.29764813 -0.068434 22.54582725 -0.07419175 24.79400635 -0.07995605 C29.51002227 -0.0904663 34.22602113 -0.09630895 38.94204712 -0.09979248 C44.98713553 -0.10527998 51.03199901 -0.12931353 57.07701683 -0.15776443 C61.72154399 -0.17638013 66.36601683 -0.18159583 71.01057816 -0.18312836 C73.23932755 -0.18615737 75.46807594 -0.19419421 77.69678879 -0.20731354 C80.81370969 -0.22435286 83.93007911 -0.22249889 87.04702759 -0.21600342 C87.96876266 -0.2252182 88.89049774 -0.23443298 89.84016418 -0.243927 C94.67022327 -0.21236862 97.92838742 -0.01649579 101.83853149 3.14044189 C106.29048761 8.21072525 106.9802804 11.15730235 106.90103149 17.76544189 C106.89651978 18.47184814 106.89200806 19.17825439 106.88735962 19.90606689 C106.87557024 21.65089465 106.85763474 23.39567889 106.83853149 25.14044189 C108.01415649 25.05794189 109.18978149 24.97544189 110.40103149 24.89044189 C115.28068551 24.89044189 117.87224166 26.3407079 121.83853149 29.14044189 C126.51987304 34.2899176 126.0214227 39.62618844 126.02603149 46.20294189 C126.03827759 47.12655518 126.05052368 48.05016846 126.06314087 49.00177002 C126.06507446 49.8841333 126.06700806 50.76649658 126.06900024 51.67559814 C126.07310913 52.4839209 126.07721802 53.29224365 126.08145142 54.12506104 C125.83853149 56.14044189 125.83853149 56.14044189 123.83853149 58.14044189 C121.73477173 58.39581299 121.73477173 58.39581299 119.14712524 58.41387939 C118.2015979 58.43450439 117.25607056 58.45512939 116.28189087 58.47637939 C114.3054112 58.50206464 112.3288217 58.5205038 110.35220337 58.53106689 C102.70129728 58.71704436 96.57913077 60.12260248 90.53384399 64.99981689 C85.94309914 70.52698234 83.5004092 75.31625959 82.27603149 82.39044189 C83.49220194 90.49824487 87.54660179 97.8896164 93.93228149 103.05450439 C100.89748459 107.02238649 108.35646467 106.5373071 116.13540649 106.70684814 C117.57400024 106.7513208 117.57400024 106.7513208 119.04165649 106.79669189 C119.91467407 106.8153833 120.78769165 106.83407471 121.68716431 106.85333252 C123.83853149 107.14044189 123.83853149 107.14044189 125.83853149 109.14044189 C126.28753286 112.1812787 126.16256486 115.25775987 126.15103149 118.32794189 C126.16714478 119.16647705 126.18325806 120.00501221 126.19985962 120.86895752 C126.20416924 126.38958482 125.50486425 130.27720116 122.83853149 135.14044189 C118.01972498 139.03649822 114.21384421 140.25578573 108.14161682 140.28761292 C106.73101486 140.29834587 106.73101486 140.29834587 105.29191589 140.30929565 C104.26694504 140.31198456 103.24197418 140.31467346 102.1859436 140.31744385 C101.10087524 140.32401505 100.01580688 140.33058624 98.89785767 140.33735657 C95.30386281 140.35707931 91.70990977 140.36875146 88.11587524 140.37872314 C86.27195285 140.38483644 86.27195285 140.38483644 84.3907795 140.39107323 C78.55218322 140.40978213 72.71360331 140.42434675 66.87498277 140.4326852 C60.82568717 140.44146929 54.77664329 140.4607177 48.72744751 140.49713135 C42.225924 140.53563994 35.72462728 140.55438019 29.22299385 140.55888939 C26.75078654 140.56374737 24.27858256 140.57533869 21.80644035 140.59392738 C18.33632276 140.61839318 14.86705936 140.61733945 11.3968811 140.6104126 C9.88067924 140.62962769 9.88067924 140.62962769 8.33384705 140.64923096 C0.57662096 140.59313002 -7.50932091 139.46708238 -13.4366312 134.06805897 C-17.09358414 130.01022966 -19.27542667 127.22870446 -19.32209778 121.70181274 C-19.3321434 120.76823944 -19.34218903 119.83466614 -19.35253906 118.87280273 C-19.35837006 117.84527893 -19.36420105 116.81775513 -19.37020874 115.75909424 C-19.37999252 114.67925262 -19.38977631 113.59941101 -19.39985657 112.48684692 C-19.42986001 108.90003704 -19.45121182 105.31326463 -19.47006226 101.72637939 C-19.47663408 100.50255177 -19.48320591 99.27872414 -19.48997688 98.01781082 C-19.51922875 92.20645275 -19.54314335 86.39511041 -19.56040901 80.58370435 C-19.57871842 74.55077211 -19.612011 68.5183534 -19.66903687 62.48565674 C-19.7292253 56.01235324 -19.75997258 49.53953757 -19.76967049 43.06596756 C-19.77823014 40.59961909 -19.79706053 38.13328382 -19.82641411 35.66709518 C-19.86533788 32.2102055 -19.8663608 28.75521367 -19.85848999 25.29815674 C-19.8784906 24.28277832 -19.89849121 23.2673999 -19.9190979 22.22125244 C-19.84725627 15.17659292 -18.07050268 11.18860959 -13.16146851 6.14044189 C-9.07859277 2.20282206 -5.77237762 0.02334429 0 0 Z M-10.28646851 7.57794189 C-10.90521851 8.42356689 -11.52396851 9.26919189 -12.16146851 10.14044189 C-13.16146851 11.14044189 -14.16146851 12.14044189 -15.16146851 13.14044189 C-16.33190569 15.48131627 -16.2946004 16.86966109 -16.30863953 19.4786377 C-16.31579483 20.38985886 -16.32295013 21.30108002 -16.33032227 22.23991394 C-16.33301117 23.24252762 -16.33570007 24.2451413 -16.33847046 25.27813721 C-16.34504166 26.33193069 -16.35161285 27.38572418 -16.35838318 28.47145081 C-16.3781479 31.97049017 -16.389786 35.46948654 -16.39974976 38.96856689 C-16.40382528 40.16179314 -16.40790081 41.35501938 -16.41209984 42.58440399 C-16.43297433 48.90011931 -16.44726997 55.2158128 -16.45663452 61.53155518 C-16.46770052 68.05978126 -16.50209912 74.58766664 -16.54180622 81.11577225 C-16.56793544 86.13092692 -16.57632311 91.14599998 -16.579916 96.16121674 C-16.58479166 98.56778005 -16.59643332 100.9743395 -16.61495399 103.38083649 C-16.63926548 106.74922263 -16.63839455 110.11672168 -16.63143921 113.48516846 C-16.64424927 114.47968521 -16.65705933 115.47420197 -16.67025757 116.49885559 C-16.62703133 122.24155089 -16.04279631 125.60901162 -12.16146851 130.14044189 C-4.90518197 137.23547761 2.06231694 137.43969896 11.69570923 137.43096924 C12.7665274 137.43768646 13.83734558 137.44440369 14.94061279 137.45132446 C18.46783126 137.47026721 21.99485913 137.47422653 25.52212524 137.47637939 C27.98160377 137.48280887 30.44108154 137.48953734 32.90055847 137.49655151 C38.05088067 137.50851423 43.20113584 137.51223326 48.35147095 137.51104736 C54.94327709 137.510844 61.53465295 137.53816923 68.12635708 137.57259178 C73.20421821 137.59485101 78.28197552 137.59888523 83.35988045 137.59782791 C85.78990222 137.60018444 88.21992684 137.60901082 90.64990044 137.62449265 C94.050892 137.64413605 97.45095196 137.63832065 100.85195923 137.62628174 C101.85013168 137.63752075 102.84830414 137.64875977 103.87672424 137.66033936 C110.27792754 137.60289761 114.32258239 136.41943197 119.83853149 133.14044189 C119.83853149 132.48044189 119.83853149 131.82044189 119.83853149 131.14044189 C120.49853149 131.14044189 121.15853149 131.14044189 121.83853149 131.14044189 C122.95018381 126.70258579 122.95380913 122.37087804 122.90103149 117.82794189 C122.89426392 116.71709229 122.89426392 116.71709229 122.88735962 115.58380127 C122.87565324 113.76931291 122.85772047 111.95486655 122.83853149 110.14044189 C121.85626587 110.12642334 121.85626587 110.12642334 120.85415649 110.11212158 C117.84822245 110.0579893 114.84377374 109.97442801 111.83853149 109.89044189 C110.29359009 109.86917236 110.29359009 109.86917236 108.71743774 109.84747314 C100.35900841 109.58128113 93.64372715 107.55594679 87.29165649 101.86700439 C81.95234942 95.522989 78.84335059 88.10839256 79.39321899 79.80059814 C80.717231 71.89136854 83.82479302 66.49040141 89.44790649 60.83184814 C96.44927271 55.87826714 103.53456735 55.63481846 111.83853149 55.45294189 C112.89942993 55.41878174 113.96032837 55.38462158 115.05337524 55.34942627 C117.64832151 55.26760364 120.24295786 55.19824195 122.83853149 55.14044189 C122.8926989 52.41100653 122.93228374 49.68265625 122.96353149 46.95294189 C122.98866821 45.79955322 122.98866821 45.79955322 123.01431274 44.62286377 C123.06538984 38.67238204 122.41343138 34.95763407 118.40103149 30.32794189 C114.13638207 26.92473038 109.00358551 27.72686995 103.83853149 28.14044189 C103.9603479 26.43887939 103.9603479 26.43887939 104.08462524 24.70294189 C104.15033675 23.18218987 104.21403109 21.66134974 104.27603149 20.14044189 C104.33468384 19.39665283 104.39333618 18.65286377 104.45376587 17.88653564 C104.63089277 12.06665175 102.88686957 9.05267551 98.98140335 4.82625198 C95.21222345 1.86101564 91.58435541 2.06869102 86.94351196 2.20050049 C85.97516418 2.19611969 85.00681641 2.19173889 84.00912476 2.18722534 C80.82324392 2.1826196 77.64110367 2.23500248 74.45571899 2.28887939 C72.23568901 2.29873232 70.01564238 2.30532675 67.79559326 2.30880737 C63.15002095 2.32406721 58.5056856 2.36512351 53.86050415 2.42706299 C47.90743956 2.5063041 41.95517797 2.54229788 36.00164604 2.56168175 C30.31956179 2.58163179 24.63767284 2.62138698 18.95571899 2.66387939 C17.33068262 2.67406664 17.33068262 2.67406664 15.67281723 2.68445969 C12.60656297 2.7076321 9.54081267 2.74467446 6.47476196 2.78643799 C5.5686618 2.7918158 4.66256165 2.7971936 3.72900391 2.80273438 C-1.99337193 2.90043582 -6.31840235 3.0263366 -10.28646851 7.57794189 Z " fill="#060606" transform="translate(23.161468505859375,57.85955810546875)"/>
<path d="M0 0 C0.84372665 0.00719055 1.68745331 0.0143811 2.55674744 0.02178955 C3.44461441 0.0214975 4.33248138 0.02120544 5.24725342 0.02090454 C8.1908485 0.02230126 11.1341925 0.03787849 14.07774353 0.05352783 C16.11512616 0.05725675 18.15251057 0.06010429 20.18989563 0.06210327 C25.55919828 0.06974929 30.92839319 0.08940609 36.2976532 0.11151123 C41.77381431 0.13194882 47.24999279 0.14110052 52.72618103 0.15118408 C63.47622844 0.17265107 74.22619578 0.20679867 84.97618103 0.24884033 C84.97618103 3.87884033 84.97618103 7.50884033 84.97618103 11.24884033 C73.29346743 11.29513095 61.61077556 11.33069287 49.92798901 11.35246468 C44.50350905 11.36291275 39.07909173 11.37709063 33.65464783 11.39971924 C28.42215673 11.4214111 23.18972596 11.43340124 17.95719337 11.43859482 C15.958454 11.44229715 13.95971802 11.44952666 11.96100426 11.46030045 C9.16675491 11.47476674 6.37275657 11.47682031 3.57847595 11.47589111 C2.74769531 11.48308167 1.91691467 11.49027222 1.06095886 11.49768066 C-2.82690786 11.48364198 -4.71290398 11.45611699 -8.02381897 9.24884033 C-8.33631897 5.74884033 -8.33631897 5.74884033 -8.02381897 2.24884033 C-5.40511838 -0.36986026 -3.56485611 0.0127544 0 0 Z M-4.02381897 3.24884033 C-4.35381897 4.56884033 -4.68381897 5.88884033 -5.02381897 7.24884033 C-1.86149847 8.83000058 1.5345981 8.37821155 5.00596619 8.36236572 C5.83531174 8.36251175 6.66465729 8.36265778 7.51913452 8.36280823 C10.26786388 8.36211004 13.01652597 8.35432205 15.76524353 8.34649658 C17.6681057 8.34463207 19.57096835 8.34320832 21.47383118 8.34220886 C26.48799459 8.33838632 31.50212914 8.32855826 36.51628113 8.31750488 C41.63051462 8.30728512 46.74475277 8.30271003 51.85899353 8.29766846 C61.89806873 8.28693578 71.93712248 8.26986249 81.97618103 8.24884033 C81.97618103 6.59884033 81.97618103 4.94884033 81.97618103 3.24884033 C53.59618103 3.24884033 25.21618103 3.24884033 -4.02381897 3.24884033 Z " fill="#0D0D0D" transform="translate(29.023818969726563,74.75115966796875)"/>
<path d="M0 0 C1 1 1 1 1.09765625 4.16015625 C1.08605469 5.44792969 1.07445312 6.73570313 1.0625 8.0625 C1.05347656 9.35285156 1.04445312 10.64320312 1.03515625 11.97265625 C1.02355469 12.97167969 1.01195312 13.97070312 1 15 C2.07121094 14.98839844 3.14242187 14.97679688 4.24609375 14.96484375 C5.64322743 14.95546701 7.04036299 14.94636669 8.4375 14.9375 C9.14455078 14.92912109 9.85160156 14.92074219 10.58007812 14.91210938 C12.38693559 14.90346412 14.19387603 14.94779989 16 15 C17 16 17 16 17.25 18.4375 C17.1675 19.283125 17.085 20.12875 17 21 C13.36804504 23.42130331 11.61650652 23.21022785 7.3125 23.125 C6.13300781 23.10695312 4.95351562 23.08890625 3.73828125 23.0703125 C2.83464844 23.04710937 1.93101562 23.02390625 1 23 C1.02320313 23.90363281 1.04640625 24.80726563 1.0703125 25.73828125 C1.09738281 27.50751953 1.09738281 27.50751953 1.125 29.3125 C1.14820313 30.48425781 1.17140625 31.65601563 1.1953125 32.86328125 C1 36 1 36 -1 39 C-2.98 38.67 -4.96 38.34 -7 38 C-7 33.05 -7 28.1 -7 23 C-9.083125 23.04125 -11.16625 23.0825 -13.3125 23.125 C-19.625 23.25 -19.625 23.25 -23 21 C-23.1875 18.375 -23.1875 18.375 -23 16 C-18.53794887 13.76897444 -11.78092876 14.95653701 -7 15 C-7 10.05 -7 5.1 -7 0 C-4.31633121 -1.3418344 -2.84719317 -0.73004953 0 0 Z " fill="#EFEFEF" transform="translate(189,109)"/>
<path d="M0 0 C0.74093399 -0.00807175 1.48186798 -0.01614349 2.24525452 -0.02445984 C3.81118444 -0.03827587 5.37714417 -0.0490091 6.94311523 -0.05688477 C9.33570195 -0.07413257 11.72691849 -0.11804148 14.11914062 -0.16210938 C15.64191694 -0.17223404 17.16470498 -0.18075086 18.6875 -0.1875 C19.40115219 -0.20500809 20.11480438 -0.22251617 20.8500824 -0.24055481 C24.04367813 -0.22662489 26.11986704 0.05990659 28.85961914 1.7434082 C31.05274162 5.2722255 30.98345225 8.55168114 30.94140625 12.58203125 C30.94523315 13.38813843 30.94906006 14.19424561 30.95300293 15.02478027 C30.95572015 16.72600557 30.94837215 18.42727278 30.93164062 20.12841797 C30.91022615 22.72979021 30.93144644 25.32840097 30.95703125 27.9296875 C30.95438794 29.5846415 30.94926288 31.23959379 30.94140625 32.89453125 C30.94950317 33.67066772 30.9576001 34.4468042 30.96594238 35.24645996 C30.90783026 38.59969635 30.64670006 40.86134964 28.84863281 43.7265625 C25.55088324 45.77098234 22.62974633 45.81322498 18.86328125 45.76953125 C18.1332489 45.77335815 17.40321655 45.77718506 16.65106201 45.78112793 C15.10785543 45.78384521 13.56460265 45.77649668 12.02148438 45.75976562 C9.68122106 45.73847291 7.3440705 45.75950521 5.00390625 45.78515625 C-4.02432369 45.80364966 -10.86792309 45.5309364 -17.8671875 39.16796875 C-18.41503906 38.48992187 -18.96289062 37.811875 -19.52734375 37.11328125 C-20.09324219 36.43007812 -20.65914063 35.746875 -21.2421875 35.04296875 C-25.32711603 29.57271663 -24.45473804 20.80019664 -23.58984375 14.23828125 C-21.67190387 9.00504528 -18.63974288 5.61095945 -13.90234375 2.73828125 C-9.07774827 0.55355877 -5.21798626 0.05385802 0 0 Z M-15.90234375 8.0078125 C-20.61567641 13.71399996 -21.59691088 18.48881059 -21.21484375 25.8515625 C-20.04693656 32.18015958 -17.02630515 36.38192971 -11.96484375 40.23828125 C-5.70811829 42.87269197 0.68868416 42.4243656 7.36450195 42.42358398 C9.46911635 42.42577756 11.57321211 42.44397523 13.67773438 42.46289062 C15.0169253 42.46582361 16.3561187 42.46780904 17.6953125 42.46875 C19.51881226 42.47491333 19.51881226 42.47491333 21.37915039 42.48120117 C24.58748813 42.47138914 24.58748813 42.47138914 27.41015625 40.23828125 C27.71444291 37.56668267 27.83027037 35.13055311 27.80859375 32.45703125 C27.81289902 31.30309875 27.81289902 31.30309875 27.81729126 30.12585449 C27.81933388 28.49844629 27.81379016 26.87101366 27.80126953 25.24365234 C27.78521757 22.74781576 27.80111036 20.25359852 27.8203125 17.7578125 C27.8183301 16.17838183 27.81448649 14.59895217 27.80859375 13.01953125 C27.81466644 12.27054565 27.82073914 11.52156006 27.82699585 10.74987793 C27.83022731 8.42317698 27.83022731 8.42317698 27.41015625 5.23828125 C22.62881622 2.05072123 17.43051798 2.90467138 11.8059082 2.92260742 C9.74700826 2.92574415 7.68957925 2.90238771 5.63085938 2.87695312 C-2.54666048 2.87294257 -9.19716308 2.87699013 -15.90234375 8.0078125 Z " fill="#080808" transform="translate(131.58984375,117.76171875)"/>
<path d="M0 0 C1.98 0 3.96 0 6 0 C7 1 7 1 7.09765625 4.16015625 C7.08605469 5.44792969 7.07445312 6.73570313 7.0625 8.0625 C7.05347656 9.35285156 7.04445312 10.64320312 7.03515625 11.97265625 C7.02355469 12.97167969 7.01195312 13.97070312 7 15 C7.98742187 14.97679688 8.97484375 14.95359375 9.9921875 14.9296875 C11.27351563 14.91164063 12.55484375 14.89359375 13.875 14.875 C15.78925781 14.84019531 15.78925781 14.84019531 17.7421875 14.8046875 C21 15 21 15 23 17 C22.44444444 21.55555556 22.44444444 21.55555556 21 23 C18.64686445 23.07271741 16.29166332 23.08370868 13.9375 23.0625 C12.64714844 23.05347656 11.35679687 23.04445312 10.02734375 23.03515625 C9.02832031 23.02355469 8.02929688 23.01195312 7 23 C7.02320313 23.98742187 7.04640625 24.97484375 7.0703125 25.9921875 C7.09738281 27.91417969 7.09738281 27.91417969 7.125 29.875 C7.14820313 31.15117187 7.17140625 32.42734375 7.1953125 33.7421875 C7 37 7 37 5 39 C3.35 38.67 1.7 38.34 0 38 C0 32.72 0 27.44 0 22 C-5.28 22 -10.56 22 -16 22 C-16 20.02 -16 18.04 -16 16 C-10.72 16 -5.44 16 0 16 C0 10.72 0 5.44 0 0 Z " fill="#EFEFEF" transform="translate(225,108)"/>
<path d="M0 0 C3.0625 0.3125 3.0625 0.3125 5 1.4375 C6.0625 3.3125 6.0625 3.3125 5.875 6.375 C5.0625 9.3125 5.0625 9.3125 3.0625 11.3125 C-0.4375 11.125 -0.4375 11.125 -3.9375 10.3125 C-5.9375 7.3125 -5.9375 7.3125 -5.6875 4.75 C-4.58727173 1.17425813 -3.7416128 0.39804391 0 0 Z M-0.9375 3.3125 C-1.2675 4.6325 -1.5975 5.9525 -1.9375 7.3125 C-0.9475 7.6425 0.0425 7.9725 1.0625 8.3125 C1.3925 6.9925 1.7225 5.6725 2.0625 4.3125 C1.0725 3.9825 0.0825 3.6525 -0.9375 3.3125 Z " fill="#151515" transform="translate(129.9375,134.6875)"/>
</svg>
